<svg xmlns="http://www.w3.org/2000/svg" xmlns:xlink="http://www.w3.org/1999/xlink" width="516" height="234" viewBox="0 0 516 234">
    <defs>
        <filter id="prefix__a" width="103.1%" height="110.9%" x="-.8%" y="-2.7%" filterUnits="objectBoundingBox">
            <feOffset dx="2" dy="2" in="SourceAlpha" result="shadowOffsetOuter1"/>
            <feColorMatrix in="shadowOffsetOuter1" values="0 0 0 0 0 0 0 0 0 0 0 0 0 0 0 0 0 0 1 0"/>
        </filter>
        <filter id="prefix__c" width="104.2%" height="111.1%" x="-2.1%" y="-5.6%" filterUnits="objectBoundingBox">
            <feOffset dx="4" dy="4" in="SourceAlpha" result="shadowOffsetOuter1"/>
            <feColorMatrix in="shadowOffsetOuter1" result="shadowMatrixOuter1" values="0 0 0 0 0 0 0 0 0 0 0 0 0 0 0 0 0 0 1 0"/>
            <feMerge>
                <feMergeNode in="shadowMatrixOuter1"/>
                <feMergeNode in="SourceGraphic"/>
            </feMerge>
        </filter>
        <filter id="prefix__d" width="103.1%" height="122.2%" x="-1.6%" y="-11.1%" filterUnits="objectBoundingBox">
            <feOffset dx="4" dy="4" in="SourceAlpha" result="shadowOffsetOuter1"/>
            <feColorMatrix in="shadowOffsetOuter1" result="shadowMatrixOuter1" values="0 0 0 0 0 0 0 0 0 0 0 0 0 0 0 0 0 0 1 0"/>
            <feMerge>
                <feMergeNode in="shadowMatrixOuter1"/>
                <feMergeNode in="SourceGraphic"/>
            </feMerge>
        </filter>
        <path id="prefix__b" d="M10.523 35.38l-3.045-3.528 3.134-2.705c2.09-1.803 2.517-4.523.766-6.552s-4.489-2.017-6.548-.24L0 26.523l8.872 10.281 1.65-1.424zM9.23 27.698l-3.059 2.64-3.188-3.695 3.059-2.64c1.12-.966 2.7-1.034 3.666.086.954 1.105.643 2.642-.478 3.61zM28.7 14.86c-1.813-3.343-5.955-4.715-9.489-2.809l-.215.121c-3.565 1.938-4.637 6.154-2.839 9.477l.114.202c1.813 3.343 5.938 4.724 9.471 2.818l.216-.12c3.637-1.978 4.696-6.337 2.742-9.69zm-3.752 7.893c-2.58 1.451-5.322.492-6.725-2-1.392-2.476-.807-5.352 1.773-6.803 2.615-1.47 5.342-.458 6.734 2.018 1.402 2.492.832 5.314-1.782 6.785zM37.45 18.65l-1.615-5.006 2.645-.854 5.309 3.814 2.588-.835-5.516-3.936c1.7-1.053 2.532-2.772 1.88-4.79-.823-2.55-3.257-3.32-5.845-2.484l-5.691 1.837 4.17 12.923 2.075-.67zm1.235-8.027L35.22 11.74l-1.315-4.073L37.37 6.55c1.408-.455 2.797-.189 3.252 1.22.448 1.39-.529 2.398-1.937 2.853zm16.674 3.718L53.868 2.898l4.72-.615L58.324.26 46.742 1.77l.264 2.022 4.72-.615 1.491 11.444 2.142-.28zm10.465-.682l.261-6.214 6.155.258.085-2.038-6.154-.258.137-3.277 7.733.324.086-2.038L64.216 0l-.57 13.568 2.178.091zm25.749-2.494l.054-.226c.953-3.762-1.268-7.659-5.31-8.555-3.935-.993-7.58 1.379-8.512 5.04l-.054.226c-.934 3.686 1.162 7.499 5.05 8.493l.24.058c3.935.993 7.6-1.375 8.532-5.036zm-8.056 3.031c-2.88-.682-4.246-3.246-3.586-6.03.655-2.763 3.035-4.48 5.915-3.797 2.92.691 4.236 3.285 3.581 6.049-.66 2.783-2.991 4.47-5.91 3.778zm19.45 8.85l.846-1.857-7.497-3.419 4.788-10.5-1.965-.896-5.635 12.356 9.463 4.316zm4.965 2.83l7.189-11.521-1.85-1.154-7.189 11.52 1.85 1.155zm18.17 6.326l.152-.177c2.512-2.854 2.372-7.215-.636-9.875l-.187-.16c-3.11-2.733-7.552-2.211-10.025.78-2.513 2.854-2.387 7.202.62 9.861l.188.16c3.048 2.679 7.39 2.244 9.889-.59zm-8.551-.977c-2.252-1.922-2.298-4.826-.441-7.002 1.843-2.16 4.745-2.603 6.996-.682 2.283 1.948 2.272 4.857.428 7.017-1.856 2.176-4.701 2.614-6.983.667z"/>
    </defs>
    <g fill="none" fill-rule="evenodd">
        <g fill-rule="nonzero" transform="translate(192)">
            <use fill="#000" filter="url(#prefix__a)" xlink:href="#prefix__b"/>
            <use fill="#FFF" xlink:href="#prefix__b"/>
        </g>
        <g filter="url(#prefix__c)" transform="translate(64 30)">
            <circle cx="72" cy="72" r="71" fill="#013540" stroke="#FFF" stroke-width="2"/>
            <path fill="#F65900" fill-rule="nonzero" d="M36.184 114.448c5.984 0 9.592-2.816 9.592-3.696V88.488c1.144.528 2.024 1.32 2.464 2.2.704 1.496 1.144 6.072 1.144 9.328 9.768-.088 13.2-5.456 13.376-13.728h1.056c4.752 0 9.68-2.464 9.68-3.52v-2.024h2.112c-4.312 11.088-12.32 21.912-23.232 28.952l.704.968c11-3.96 20.064-9.328 26.84-16.192v19.8h2.288c4.488 0 9.592-2.904 9.592-4.136V81.712c2.552 13.904 6.688 21.912 14.432 29.04 1.232-5.808 4.4-10.384 8.976-11.792l.176-.792c-8.272-2.376-18.128-7.304-22.88-17.424h5.104v4.576h2.024c3.696 0 9.416-2.024 9.504-2.64V57.512c1.672-.352 2.64-1.056 3.168-1.672l-10.472-7.832-5.104 5.456H91.8V46.6h20.24c1.32 0 2.288-.44 2.552-1.408-3.96-3.784-10.736-9.328-10.736-9.328l-6.072 8.272H91.8v-8.624c2.464-.352 3.08-1.232 3.256-2.464L79.92 31.552v12.584H62.408l.44-.792c2.112 0 3.256-.352 3.96-1.232L55.72 32.08 50 37.624h-3.08l-12.848-4.752v81.576h2.112zM48.68 87.08h-2.904V40.088h5.016c-.528 7.04-2.112 17.688-3.344 23.584 3.344 5.544 4.488 12.408 4.488 18.48 0 2.464-.528 3.872-1.496 4.488-.528.352-.968.44-1.76.44zm13.552-6.248c-1.408-6.248-5.456-12.936-12.584-17.424C53.52 58.744 57.832 51.968 61 46.6h18.92v6.864h-5.896l-11.792-4.576v31.944zM79.92 65.696h-6.424v-9.768h6.424v9.768zm17.688 0H91.8v-9.768h5.808v9.768zM79.92 78.28h-6.424V68.16h6.424v10.12zm17.688 0H91.8V68.16h5.808v10.12z"/>
            <g transform="translate(120)">
                <circle cx="72" cy="72" r="71" fill="#013540" stroke="#FFF" stroke-width="2"/>
                <path fill="#F65900" fill-rule="nonzero" d="M111.512 47.92c1.32 0 2.288-.44 2.552-1.408-4.488-4.048-12.144-10.12-12.144-10.12l-6.864 9.064H84.672c7.744-.616 11.528-13.552-9.504-14.52l-.616.44c2.112 2.904 3.96 7.568 3.96 11.968 1.672 1.32 3.344 2.024 4.928 2.112h-26.4l.704 2.464h53.768zM38.296 31.904l-.616.44c2.64 3.696 5.72 9.152 6.776 14.344 11 7.48 21.032-13.112-6.16-14.784zm37.136 82.544c12.584-.88 14.432-5.808 14.432-13.464V77.136h4.048v2.728H96.2c6.512 0 10.296-1.848 10.296-2.288V59.624c1.936-.352 2.728-.968 3.256-1.76L99.28 50.032l-5.72 6.336H74.552l-12.76-4.752V80.48h2.2c6.072 0 9.68-1.76 9.68-2.552v-.792h4.136v9.24l-14.52-5.192c-1.76 9.944-5.808 19.448-10.208 25.608l.88.704c8.536-3.608 16.192-9.504 21.824-18.92.792.088 1.496 0 2.024-.176v12.32c0 .88-.352 1.408-1.584 1.408-1.76 0-9.68-.44-9.68-.44v1.056c4.312.792 5.984 2.112 7.128 3.696 1.232 1.672 1.584 4.4 1.76 8.008zm-32.12 0c4.84 0 8.536-3.168 8.712-8.008.264-8.096-3.872-10.824-4.048-16.016-.088-2.2.616-5.456 1.32-8.272 1.056-4.4 6.16-21.296 9.152-30.536l-1.232-.352c-15.664 30.712-15.664 30.712-17.864 33.88-1.056 1.625-1.437 1.75-2.666 1.76h-4.374v1.584c1.848.176 3.432.616 4.664 1.496 2.2 1.408 2.464 10.296.616 19.8.968 3.52 3.52 4.664 5.72 4.664zM30.64 52.056l-.616.44c2.728 3.344 5.896 8.624 6.864 13.464 10.56 6.952 19.712-12.936-6.248-13.904zm63.272 22.616h-20.24v-15.84h20.24v15.84zm-2.376 9.152l-.704.44c4.224 5.632 8.36 13.464 9.68 20.768 11.88 8.8 22.088-14.872-8.976-21.208z"/>
            </g>
            <g transform="translate(240)">
                <circle cx="72" cy="72" r="71" fill="#013540" stroke="#FFF" stroke-width="2"/>
                <path fill="#F65900" fill-rule="nonzero" d="M111.512 47.92c1.32 0 2.288-.44 2.552-1.408-4.488-4.048-12.144-10.12-12.144-10.12l-6.864 9.064H84.672c7.744-.616 11.528-13.552-9.504-14.52l-.616.44c2.112 2.904 3.96 7.568 3.96 11.968 1.672 1.32 3.344 2.024 4.928 2.112h-26.4l.704 2.464h53.768zM38.296 31.904l-.616.44c2.64 3.696 5.72 9.152 6.776 14.344 11 7.48 21.032-13.112-6.16-14.784zm37.136 82.544c12.584-.88 14.432-5.808 14.432-13.464V77.136h4.048v2.728H96.2c6.512 0 10.296-1.848 10.296-2.288V59.624c1.936-.352 2.728-.968 3.256-1.76L99.28 50.032l-5.72 6.336H74.552l-12.76-4.752V80.48h2.2c6.072 0 9.68-1.76 9.68-2.552v-.792h4.136v9.24l-14.52-5.192c-1.76 9.944-5.808 19.448-10.208 25.608l.88.704c8.536-3.608 16.192-9.504 21.824-18.92.792.088 1.496 0 2.024-.176v12.32c0 .88-.352 1.408-1.584 1.408-1.76 0-9.68-.44-9.68-.44v1.056c4.312.792 5.984 2.112 7.128 3.696 1.232 1.672 1.584 4.4 1.76 8.008zm-32.12 0c4.84 0 8.536-3.168 8.712-8.008.264-8.096-3.872-10.824-4.048-16.016-.088-2.2.616-5.456 1.32-8.272 1.056-4.4 6.16-21.296 9.152-30.536l-1.232-.352c-15.664 30.712-15.664 30.712-17.864 33.88-1.056 1.625-1.437 1.75-2.666 1.76h-4.374v1.584c1.848.176 3.432.616 4.664 1.496 2.2 1.408 2.464 10.296.616 19.8.968 3.52 3.52 4.664 5.72 4.664zM30.64 52.056l-.616.44c2.728 3.344 5.896 8.624 6.864 13.464 10.56 6.952 19.712-12.936-6.248-13.904zm63.272 22.616h-20.24v-15.84h20.24v15.84zm-2.376 9.152l-.704.44c4.224 5.632 8.36 13.464 9.68 20.768 11.88 8.8 22.088-14.872-8.976-21.208z"/>
            </g>
        </g>
        <g filter="url(#prefix__d)" transform="translate(0 158)">
            <g>
                <path fill="#013540" stroke="#FFF" stroke-width="2" d="M1 1H79V47H1z" transform="translate(0 24)"/>
                <path fill="#000" d="M48 24L80 24 80 48z" transform="translate(0 24)"/>
            </g>
            <g>
                <path fill="#013540" stroke="#FFF" stroke-width="2" d="M1 1H79V47H1z" transform="matrix(-1 0 0 1 512 24)"/>
                <path fill="#000" d="M48 24L80 24 80 48z" transform="matrix(-1 0 0 1 512 24)"/>
            </g>
            <path fill="#013540" stroke="#FFF" stroke-width="2" d="M49 1H463V47H49z"/>
            <path fill="#FFF" fill-rule="nonzero" d="M79.43 22.766l1.159-5.064L79 16l-1.546 1.787 1.202 4.979h.773zm-1.718.936l.386-.68-3.779-3.49-2.319.425.687 2.213 5.025 1.532zm2.576 0l4.982-1.532.73-2.213-2.362-.425-3.736 3.49.386.68zm-5.969 4.894l3.78-3.532-.387-.681-5.025 1.532L72 28.128l2.319.468zm9.319 0L86 28.128l-.73-2.213-4.982-1.532-.386.68 3.736 3.533zM79.086 32l1.546-1.787-1.203-4.979h-.773l-1.16 5.064L79.087 32zM433.43 22.766l1.159-5.064L433 16l-1.546 1.787 1.202 4.979h.773zm-1.718.936l.386-.68-3.779-3.49-2.319.425.687 2.213 5.025 1.532zm2.576 0l4.982-1.532.73-2.213-2.362-.425-3.736 3.49.386.68zm-5.969 4.894l3.78-3.532-.387-.681-5.025 1.532-.687 2.213 2.319.468zm9.319 0l2.362-.468-.73-2.213-4.982-1.532-.386.68 3.736 3.533zM433.086 32l1.546-1.787-1.203-4.979h-.773l-1.16 5.064 1.59 1.702zM118.92 31l4.84-9.2c.04.08.06.14.1.2l4.84 9h3.54l6.24-11.86c.44-.74.92-1.48 1.42-2.14h-3.04s.22.94-1.34 4.52l-3.38 6.6-3.8-7.64c-1-2.08-1.22-3.48-1.2-3.48h-6.24c.7.8 1.38 2 2 3.18l-4.08 7.94-3.8-7.64c-1-2.08-1.22-3.48-1.2-3.48h-6.24c1.08 1.24 2.14 3.48 2.96 5l4.84 9h3.54zm29.72 0s-.54-.64-.54-3.38V20.4c0-2.76.54-3.4.54-3.4h-5.54s.6.64.6 3.38l-.06 7.24c0 2.74-.54 3.38-.54 3.38h5.54zm7.94 0s-.6-.64-.6-3.38V20.4c0-.24 0-.48.02-.7 3.26 3.16 7.92 7.9 11.42 11.3h6.44l-1.08-1.02c-.1-.52-.2-1.28-.2-2.36V20.4c0-2.76.6-3.4.6-3.4h-2.6s.6.64.6 3.38l-.06 7.24c0 .26 0 .52-.02.74L159.24 17h-6.2c.38.3.84.72 1.38 1.22.08.5.16 1.2.16 2.16l-.06 7.24c0 2.74-.6 3.38-.6 3.38h2.66zm32.24.54c4.24 0 9.24-1.64 9.24-4.7 0-3.16-4.56-3.76-9.24-4.8-3.16-.66-5.78-1.22-5.78-2.82 0-.8.72-1.94 3.7-2.06 1.7 0 6.1.6 9.4 4.92l1.12-3.92c-3.12-1.32-6.16-1.96-9.84-1.96-5.44 0-8.22 2.4-8.22 4.54 0 2.94 3.16 3.78 8.6 5 4.26.9 6.1 1.36 6.1 2.8 0 1.02-1.54 1.9-4 1.9-3.88 0-8.44-1.9-10.36-5.6l-1.28 4.1c2.96 1.74 6.8 2.6 10.56 2.6zm32.6-.46l.88-5.14-.74-.08c-2.82 4.7-5.36 4.26-13.36 4.22-.1-.52-.2-1.3-.2-2.46v-3.56h11.9v-.92H208V20.4c0-1.18.1-1.96.2-2.48 7.3-.04 9.88-.14 12.56 4.24l.74-.08-.88-5.08h-17.56s.54.64.54 3.38l-.06 7.24c0 2.74-.48 3.38-.48 3.38l18.36.08zm8.82-.08s-.6-.64-.6-3.38V20.4c0-.24 0-.48.02-.7 3.26 3.16 7.92 7.9 11.42 11.3h6.44l-1.08-1.02c-.1-.52-.2-1.28-.2-2.36V20.4c0-2.76.6-3.4.6-3.4h-2.6s.6.64.6 3.38l-.06 7.24c0 .26 0 .52-.02.74L232.9 17h-6.2c.38.3.84.72 1.38 1.22.08.5.16 1.2.16 2.16l-.06 7.24c0 2.74-.6 3.38-.6 3.38h2.66zm44.24 0s-.54-.64-.54-3.38V20.4c0-1.16.1-1.96.2-2.48 3.6.16 5.44.92 7.48 4.24l.34-.08-.88-5.14-9.34.06-9.34-.06-.88 5.14.34.08c2.04-3.32 3.86-4.08 7.48-4.24.1.52.2 1.3.2 2.46l-.06 7.24c0 2.74-.48 3.38-.48 3.38h5.48zm11.94 0c-.26-.62-.06-1.3.34-2.02l1.34-2.22h8.5l1.12 1.86c.4.82.84 1.92.46 2.38h7.24c-.82-.48-2.44-2.74-3.46-4.32l-.98-1.52-5.36-8.16h-7.16v.1c1.02.24 2 .94 2.82 1.74-1.66 2.64-3.3 5.28-4.96 7.9-.92 1.42-2.22 3.22-3.36 4.26h3.46zm9.62-5.16h-7.4l3.6-5.96c.46.56.84 1.12 1.1 1.52l2.7 4.44zM311.56 31s-.6-.64-.6-3.38V20.4c0-.24 0-.48.02-.7 3.26 3.16 7.92 7.9 11.42 11.3h6.44l-1.08-1.02c-.1-.52-.2-1.28-.2-2.36V20.4c0-2.76.6-3.4.6-3.4h-2.6s.6.64.6 3.38l-.06 7.24c0 .26 0 .52-.02.74L314.22 17h-6.2c.38.3.84.72 1.38 1.22.08.5.16 1.2.16 2.16l-.06 7.24c0 2.74-.6 3.38-.6 3.38h2.66zm30.4.02c7.16 0 11.04-4.04 11.04-8.22 0-4.36-4.74-5.8-9.78-5.8h-9.78s.6.64.6 3.38l-.06 7.24c0 2.74-.54 3.4-.54 3.4h8.52zm.58-.84c-1.88 0-3.08-.4-4.02-.98-.06-.42-.08-.94-.08-1.58V20.4c0-.92.06-1.6.14-2.1 1.1-.36 2.14-.4 3-.38 3.54 0 6.82 1.86 6.82 6.34 0 3.42-1.8 5.92-5.86 5.92zm20.34.82s-.54-.64-.54-3.38v-3c.9.04 1.94.44 3.3 1.22.78.46 2.32 1.62 4.86 4.52.14.16.36.5.36.64h7.3v-.32c-1.84-.12-5.14-3.14-7.9-5.48 3.3-.58 5.64-2.34 5.64-4.48 0-2.44-1.72-3.92-9.64-3.92h-9.06s.76.44.74 3.58l-.06 7.24c-.02 2.74-.54 3.38-.54 3.38h5.54zm4.1-6.4c-2.26 0-3.6-.58-4.64-1.18V20.6c0-1.22.08-1.96.16-2.68.68-.12 1.4-.2 2.76-.2 3.34 0 6.14 1.14 6.14 3.92 0 1.96-2.26 2.96-4.42 2.96zm17.44 6.4c-.26-.62-.06-1.3.34-2.02l1.34-2.22h8.5l1.12 1.86c.4.82.84 1.92.46 2.38h7.24c-.82-.48-2.44-2.74-3.46-4.32l-.98-1.52-5.36-8.16h-7.16v.1c1.02.24 2 .94 2.82 1.74-1.66 2.64-3.3 5.28-4.96 7.9-.92 1.42-2.22 3.22-3.36 4.26h3.46zm9.62-5.16h-7.4l3.6-5.96c.46.56.84 1.12 1.1 1.52l2.7 4.44z"/>
        </g>
    </g>
</svg>
