<svg xmlns="http://www.w3.org/2000/svg" width="880" height="10" viewBox="0 0 880 10">
    <path fill="#FFF" fill-opacity=".5" d="M880 0v2c-4.6 0-7 1.8-9.4 3.8l-1.033.794C867.267 8.341 864.69 10 860 10c-5.4 0-8-2.2-10.6-4.2l-.437-.361C846.701 3.589 844.321 2 840 2c-4.6 0-7 1.8-9.4 3.8l-1.033.794C827.267 8.341 824.69 10 820 10c-5.4 0-8-2.2-10.6-4.2l-.437-.361C806.701 3.589 804.321 2 800 2c-4.6 0-7 1.8-9.4 3.8l-1.033.794C787.267 8.341 784.69 10 780 10c-5.4 0-8-2.2-10.6-4.2l-.437-.361C766.701 3.589 764.321 2 760 2c-4.6 0-7 1.8-9.4 3.8l-1.033.794C747.267 8.341 744.69 10 740 10c-5.4 0-8-2.2-10.6-4.2l-.437-.361C726.701 3.589 724.321 2 720 2c-4.6 0-7 1.8-9.4 3.8l-1.033.794C707.267 8.341 704.69 10 700 10c-5.4 0-8-2.2-10.6-4.2l-.437-.361C686.701 3.589 684.321 2 680 2c-4.6 0-7 1.8-9.4 3.8l-1.033.794C667.267 8.341 664.69 10 660 10c-5.4 0-8-2.2-10.6-4.2l-.437-.361C646.701 3.589 644.321 2 640 2c-4.6 0-7 1.8-9.4 3.8l-1.033.794C627.267 8.341 624.69 10 620 10c-5.4 0-8-2.2-10.6-4.2l-.437-.361C606.701 3.589 604.321 2 600 2c-4.6 0-7 1.8-9.4 3.8l-1.033.794C587.267 8.341 584.69 10 580 10c-5.4 0-8-2.2-10.6-4.2l-.437-.361C566.701 3.589 564.321 2 560 2c-4.6 0-7 1.8-9.4 3.8l-1.033.794C547.267 8.341 544.69 10 540 10c-5.4 0-8-2.2-10.6-4.2l-.437-.361C526.701 3.589 524.321 2 520 2c-4.6 0-7 1.8-9.4 3.8l-1.033.794C507.267 8.341 504.69 10 500 10c-5.4 0-8-2.2-10.6-4.2l-.437-.361C486.701 3.589 484.321 2 480 2c-4.6 0-7 1.8-9.4 3.8l-1.033.794C467.267 8.341 464.69 10 460 10c-5.4 0-8-2.2-10.6-4.2l-.437-.361C446.701 3.589 444.321 2 440 2c-4.6 0-7 1.8-9.4 3.8l-1.033.794C427.267 8.341 424.69 10 420 10c-5.4 0-8-2.2-10.6-4.2l-.437-.361C406.701 3.589 404.321 2 400 2c-4.6 0-7 1.8-9.4 3.8l-1.033.794C387.267 8.341 384.69 10 380 10c-5.4 0-8-2.2-10.6-4.2l-.437-.361C366.701 3.589 364.321 2 360 2c-4.6 0-7 1.8-9.4 3.8l-1.033.794C347.267 8.341 344.69 10 340 10c-5.4 0-8-2.2-10.6-4.2l-.437-.361C326.701 3.589 324.321 2 320 2c-4.6 0-7 1.8-9.4 3.8l-1.033.794C307.267 8.341 304.69 10 300 10c-5.4 0-8-2.2-10.6-4.2l-.437-.361C286.701 3.589 284.321 2 280 2c-4.6 0-7 1.8-9.4 3.8l-1.033.794C267.267 8.341 264.69 10 260 10c-5.4 0-8-2.2-10.6-4.2l-.437-.361C246.701 3.589 244.321 2 240 2c-4.6 0-7 1.8-9.4 3.8l-1.033.794C227.267 8.341 224.69 10 220 10c-5.4 0-8-2.2-10.6-4.2l-.437-.361C206.701 3.589 204.321 2 200 2c-4.6 0-7 1.8-9.4 3.8l-1.033.794C187.267 8.341 184.69 10 180 10c-5.4 0-8-2.2-10.6-4.2l-.437-.361C166.701 3.589 164.321 2 160 2c-4.6 0-7 1.8-9.4 3.8l-1.033.794C147.267 8.341 144.69 10 140 10c-5.4 0-8-2.2-10.6-4.2l-.437-.361C126.701 3.589 124.321 2 120 2c-4.6 0-7 1.8-9.4 3.8l-1.033.794C107.267 8.341 104.69 10 100 10c-5.4 0-8-2.2-10.6-4.2l-.437-.361C86.701 3.589 84.321 2 80 2c-4.6 0-7 1.8-9.4 3.8l-1.033.794C67.267 8.341 64.69 10 60 10c-5.4 0-8-2.2-10.6-4.2l-.437-.361C46.701 3.589 44.321 2 40 2c-4.6 0-7 1.8-9.4 3.8l-1.033.794C27.267 8.341 24.69 10 20 10c-5.4 0-8-2.2-10.6-4.2l-.437-.361C6.701 3.589 4.321 2 0 2V0c5.4 0 8 2.2 10.6 4.2l.437.361C13.299 6.411 15.679 8 20 8c4.6 0 7-1.8 9.4-3.8l1.033-.794C32.733 1.659 35.31 0 40 0c5.4 0 8 2.2 10.6 4.2l.437.361C53.299 6.411 55.679 8 60 8c4.6 0 7-1.8 9.4-3.8l1.033-.794C72.733 1.659 75.31 0 80 0c5.4 0 8 2.2 10.6 4.2l.437.361C93.299 6.411 95.679 8 100 8c4.6 0 7-1.8 9.4-3.8l1.033-.794C112.733 1.659 115.31 0 120 0c5.4 0 8 2.2 10.6 4.2l.437.361C133.299 6.411 135.679 8 140 8c4.6 0 7-1.8 9.4-3.8l1.033-.794C152.733 1.659 155.31 0 160 0c5.4 0 8 2.2 10.6 4.2l.437.361C173.299 6.411 175.679 8 180 8c4.6 0 7-1.8 9.4-3.8l1.033-.794C192.733 1.659 195.31 0 200 0c5.4 0 8 2.2 10.6 4.2l.437.361C213.299 6.411 215.679 8 220 8c4.6 0 7-1.8 9.4-3.8l1.033-.794C232.733 1.659 235.31 0 240 0c5.4 0 8 2.2 10.6 4.2l.437.361C253.299 6.411 255.679 8 260 8c4.6 0 7-1.8 9.4-3.8l1.05-.808C272.747 1.651 275.324 0 280 0c5.4 0 8 2.2 10.6 4.2l.437.361C293.299 6.411 295.679 8 300 8c4.6 0 7-1.8 9.4-3.8l1.05-.808C312.747 1.651 315.324 0 320 0c5.4 0 8 2.2 10.6 4.2l.437.361C333.299 6.411 335.679 8 340 8c4.6 0 7-1.8 9.4-3.8l1.05-.808C352.747 1.651 355.324 0 360 0c5.4 0 8 2.2 10.6 4.2l.437.361C373.299 6.411 375.679 8 380 8c4.6 0 7-1.8 9.4-3.8l1.05-.808C392.747 1.651 395.324 0 400 0c5.4 0 8 2.2 10.6 4.2l.437.361C413.299 6.411 415.679 8 420 8c4.6 0 7-1.8 9.4-3.8l1.05-.808C432.747 1.651 435.324 0 440 0c5.4 0 8 2.2 10.6 4.2l.437.361C453.299 6.411 455.679 8 460 8c4.6 0 7-1.8 9.4-3.8l1.05-.808C472.747 1.651 475.324 0 480 0c5.4 0 8 2.2 10.6 4.2l.437.361C493.299 6.411 495.679 8 500 8c4.6 0 7-1.8 9.4-3.8l1.033-.794C512.733 1.659 515.31 0 520 0c5.4 0 8 2.2 10.6 4.2l.437.361C533.299 6.411 535.679 8 540 8c4.6 0 7-1.8 9.4-3.8l1.05-.808C552.747 1.651 555.324 0 560 0c5.4 0 8 2.2 10.6 4.2l.437.361C573.299 6.411 575.679 8 580 8c4.6 0 7-1.8 9.4-3.8l1.05-.808C592.747 1.651 595.324 0 600 0c5.4 0 8 2.2 10.6 4.2l.437.361C613.299 6.411 615.679 8 620 8c4.6 0 7-1.8 9.4-3.8l1.05-.808C632.747 1.651 635.324 0 640 0c5.4 0 8 2.2 10.6 4.2l.437.361C653.299 6.411 655.679 8 660 8c4.6 0 7-1.8 9.4-3.8l1.05-.808C672.747 1.651 675.324 0 680 0c5.4 0 8 2.2 10.6 4.2l.437.361C693.299 6.411 695.679 8 700 8c4.6 0 7-1.8 9.4-3.8l1.05-.808C712.747 1.651 715.324 0 720 0c5.4 0 8 2.2 10.6 4.2l.437.361C733.299 6.411 735.679 8 740 8c4.6 0 7-1.8 9.4-3.8l1.05-.808C752.747 1.651 755.324 0 760 0c5.4 0 8 2.2 10.6 4.2l.437.361C773.299 6.411 775.679 8 780 8c4.6 0 7-1.8 9.4-3.8l1.05-.808C792.747 1.651 795.324 0 800 0c5.4 0 8 2.2 10.6 4.2l.437.361C813.299 6.411 815.679 8 820 8c4.6 0 7-1.8 9.4-3.8l1.05-.808C832.747 1.651 835.324 0 840 0c5.4 0 8 2.2 10.6 4.2l.437.361C853.299 6.411 855.679 8 860 8c4.6 0 7-1.8 9.4-3.8l1.05-.808C872.747 1.651 875.324 0 880 0z"/>
</svg>
