<svg xmlns="http://www.w3.org/2000/svg" width="32" height="32" viewBox="0 0 32 32">
    <path fill="#FFF" d="M16.859 13.532l2.319-10.128L16 0l-3.092 3.574 2.405 9.958h1.546zm-3.436 1.872l.773-1.361-7.558-6.98L2 7.916l1.374 4.425 10.05 3.064zm5.154 0l9.963-3.064L30 7.915l-4.724-.851-7.472 6.979.773 1.361zM6.638 25.191l7.558-7.063-.773-1.362L3.374 19.83 2 24.255l4.638.936zm18.638 0L30 24.255l-1.46-4.425-9.963-3.064-.773 1.362 7.472 7.063zM16.172 32l3.092-3.574-2.405-9.958h-1.546l-2.32 10.128L16.173 32z"/>
</svg>
