<?xml version="1.0" standalone="no"?>
<!DOCTYPE svg PUBLIC "-//W3C//DTD SVG 20010904//EN"
 "http://www.w3.org/TR/2001/REC-SVG-20010904/DTD/svg10.dtd">
<svg version="1.0" xmlns="http://www.w3.org/2000/svg"
 width="813.000000pt" height="813.000000pt" viewBox="0 0 813.000000 813.000000"
 preserveAspectRatio="xMidYMid meet">
<metadata>
Created by potrace 1.11, written by Peter Selinger 2001-2013
</metadata>
<g transform="translate(0.000000,813.000000) scale(0.100000,-0.100000)"
fill="#000000" stroke="none">
<path d="M3136 7423 c-137 -318 -256 -596 -266 -618 -10 -22 -72 -168 -140
-325 -67 -157 -128 -299 -135 -316 -8 -17 -91 -210 -185 -430 -94 -219 -177
-412 -185 -429 -7 -16 -63 -147 -125 -289 -61 -143 -117 -274 -125 -290 -7
-17 -32 -76 -55 -131 -23 -55 -55 -128 -71 -162 -16 -34 -29 -65 -29 -69 0 -4
-9 -25 -19 -48 -24 -52 -22 -47 -191 -441 -78 -181 -148 -343 -155 -360 -8
-16 -91 -210 -185 -430 -94 -220 -178 -413 -185 -430 -7 -16 -55 -127 -105
-245 -51 -118 -98 -228 -106 -245 -7 -16 -144 -336 -304 -710 -160 -374 -298
-694 -305 -711 -8 -16 -44 -99 -80 -184 -36 -85 -72 -168 -80 -184 -7 -17 -30
-71 -51 -121 -20 -50 -41 -94 -46 -99 -4 -6 -8 -14 -8 -18 0 -4 298 -8 663 -8
l663 0 213 498 c118 273 224 520 236 547 12 28 82 190 155 360 73 171 143 333
156 362 13 28 24 54 24 57 0 3 13 34 29 68 16 35 47 108 70 163 23 55 50 118
60 140 10 22 134 310 275 640 142 330 265 618 275 640 10 22 37 85 61 140 23
55 51 118 60 140 10 22 37 85 60 140 24 55 53 123 65 150 12 28 35 79 50 115
15 36 38 89 51 118 13 29 24 55 24 58 0 3 10 26 21 52 22 47 706 1638 761
1767 16 39 40 94 54 123 13 29 24 55 24 58 0 3 9 25 20 49 17 38 589 1366 625
1453 l14 32 -663 0 -662 0 -248 -577z"/>
<path d="M6399 7928 c-7 -18 -23 -55 -35 -83 -12 -27 -102 -234 -199 -460 -97
-225 -184 -428 -194 -450 -10 -22 -44 -101 -76 -175 -32 -74 -68 -157 -80
-185 -13 -27 -57 -129 -98 -225 -133 -311 -396 -919 -422 -976 -14 -30 -25
-57 -25 -59 0 -2 -11 -28 -24 -57 -13 -29 -137 -316 -275 -638 -139 -322 -258
-598 -266 -615 -7 -16 -43 -100 -80 -185 -36 -85 -72 -168 -80 -185 -15 -33
-261 -602 -477 -1105 -77 -179 -148 -343 -158 -365 -10 -22 -41 -94 -70 -160
-28 -66 -58 -133 -65 -150 -7 -16 -70 -163 -140 -325 -70 -162 -133 -308 -140
-325 -8 -16 -80 -183 -160 -370 -160 -370 -163 -379 -193 -445 -11 -25 -39
-90 -62 -145 -23 -55 -44 -103 -47 -107 -2 -5 295 -8 660 -8 l664 0 38 92 c21
51 42 98 46 103 4 6 17 34 29 64 11 30 29 73 39 95 11 23 69 158 131 301 143
334 133 311 164 378 14 32 26 60 26 63 0 4 16 40 35 81 19 41 35 77 35 79 0 4
51 123 115 269 8 17 23 53 35 80 12 27 28 63 35 80 7 16 50 116 95 220 45 105
88 204 95 220 8 17 48 111 90 210 42 99 85 198 95 220 30 67 46 103 130 300
44 105 87 204 95 220 13 30 242 560 443 1025 60 140 117 271 126 290 8 19 65
152 127 295 61 143 117 274 124 290 36 82 67 152 75 170 4 11 15 36 23 55 9
19 59 136 112 260 54 124 105 243 115 265 9 22 45 105 80 185 34 80 68 159 76
176 7 17 79 183 160 370 80 186 152 354 160 372 8 17 20 47 28 65 23 51 335
774 372 860 l33 77 -663 0 -664 0 -13 -32z"/>
<path d="M7268 1549 c-337 -70 -620 -337 -691 -654 -30 -132 -10 -302 50 -420
42 -81 147 -189 236 -243 120 -72 252 -103 422 -97 382 12 731 285 824 646 26
98 22 256 -7 349 -104 324 -451 498 -834 419z"/>
</g>
</svg>
