<svg xmlns="http://www.w3.org/2000/svg" width="24" height="24" viewBox="0 0 24 24">
    <path fill="#FFF" d="M12 23c6.065 0 11-4.935 11-11S18.065 1 12 1 1 5.935 1 12s4.935 11 11 11zm1.304-14.62c-1.54-2.829-3.246-5.152-3.506-5.5 2.98-.718 6.12.056 8.43 2.106-.169.24-1.583 2.142-4.924 3.394zM2.803 10.09c.609-2.916 2.574-5.339 5.202-6.579.248.34 1.927 2.667 3.484 5.434-4.395 1.167-8.266 1.15-8.686 1.145zm18.592 1.836c-.31-.066-3.417-.696-6.543-.303-.255-.623-.496-1.17-.826-1.846 3.474-1.418 5.049-3.436 5.247-3.704 1.308 1.599 2.1 3.635 2.122 5.853zM5.02 18.296c-1.5-1.665-2.416-3.868-2.416-6.282 0-.096.002-.191.005-.287.411.009 4.964.067 9.656-1.337.27.527.526 1.06.762 1.595-3.397.957-6.484 3.704-8.007 6.312zm12.23 1.507c-.097-.571-.597-3.322-1.826-6.699 2.945-.471 5.531.3 5.853.402-.419 2.614-1.92 4.872-4.027 6.297zm-11.017-.376c.981-2.007 3.645-4.597 7.433-5.889 1.319 3.428 1.864 6.301 2.004 7.125-3.021 1.287-6.654.934-9.437-1.236z"/>
</svg>
