<svg xmlns="http://www.w3.org/2000/svg" width="48" height="48" viewBox="0 0 48 48">
    <g fill="none" fill-rule="evenodd">
        <path d="M0 0L48 0 48 48 0 48z"/>
        <g stroke-width="2" transform="translate(6 6)">
            <circle cx="18" cy="18" r="5" stroke="#FFF"/>
            <path stroke="#F65900" d="M22.472.28c1.745.439 3.39 1.129 4.895 2.029l-.175 6.499 6.498-.176c.9 1.505 1.59 3.15 2.03 4.895L31 18l4.72 4.472c-.439 1.745-1.129 3.39-2.03 4.896l-6.498-.176.175 6.499c-1.505.9-3.15 1.59-4.894 2.029L18 31l-4.473 4.72c-1.745-.44-3.39-1.13-4.895-2.03l.176-6.498-6.498.176c-.9-1.505-1.59-3.15-2.03-4.895L5 18 .28 13.526c.44-1.745 1.13-3.39 2.03-4.894l6.498.176-.176-6.498c1.505-.901 3.15-1.591 4.896-2.03L18 5z"/>
        </g>
    </g>
</svg>
