<svg xmlns="http://www.w3.org/2000/svg" width="24" height="24" viewBox="0 0 24 24">
    <path fill="#FFF" d="M22 22V2H2v20h20zm-3.406-4.826h-5.268v-.219l1.085-1.053c.089-.09.104-.126.106-.229V9.491l-3.017 7.66h-.406L7.58 9.492v5.134c-.03.214.045.433.197.59l1.41 1.71v.227H5.18v-.228l1.41-1.71c.152-.156.219-.375.183-.589V8.687c.018-.165-.044-.325-.17-.437L5.349 6.737v-.228h3.898l3.008 6.607 2.648-6.603h3.714v.224l-1.071 1.026c-.094.072-.139.188-.12.3v7.558c-.019.116.026.232.12.299l1.049 1.026v.228z"/>
</svg>
